<svg width="16" height="16" viewBox="0 0 16 16" fill="none" xmlns="http://www.w3.org/2000/svg">
<g id="instagram-mono" clip-path="url(#clip0_350_2665)">
<g id="Vector">
<path fill-rule="evenodd" clip-rule="evenodd" d="M8.00005 3.89188C5.73118 3.89188 3.89193 5.73113 3.89193 8C3.89193 10.2688 5.73118 12.1081 8.00005 12.1081C10.2689 12.1081 12.1081 10.2688 12.1081 8C12.1081 5.73113 10.2689 3.89188 8.00005 3.89188ZM8.00005 10.6666C6.52727 10.6666 5.33336 9.47272 5.33336 8C5.33336 6.52722 6.52727 5.33331 8.00005 5.33331C9.47277 5.33331 10.6667 6.52722 10.6667 8C10.6667 9.47272 9.47277 10.6666 8.00005 10.6666Z" fill="#1D1D1F"/>
<path d="M12.2704 4.68956C12.8006 4.68956 13.2304 4.25978 13.2304 3.72956C13.2304 3.19937 12.8006 2.76959 12.2704 2.76959C11.7402 2.76959 11.3104 3.19937 11.3104 3.72956C11.3104 4.25978 11.7402 4.68956 12.2704 4.68956Z" fill="#1D1D1F"/>
<path fill-rule="evenodd" clip-rule="evenodd" d="M8 0C5.82731 0 5.55487 0.00921875 4.70159 0.0481562C3.85009 0.087 3.26853 0.222219 2.75966 0.42C2.23359 0.624437 1.78744 0.898 1.34272 1.34275C0.897969 1.78747 0.624406 2.23362 0.419969 2.75969C0.222187 3.26853 0.0869687 3.85009 0.048125 4.70159C0.0091875 5.55487 0 5.82731 0 8C0 10.1726 0.0091875 10.4451 0.048125 11.2983C0.0869687 12.1498 0.222187 12.7314 0.419969 13.2402C0.624406 13.7663 0.897969 14.2125 1.34272 14.6572C1.78744 15.102 2.23359 15.3755 2.75966 15.58C3.26853 15.7777 3.85009 15.913 4.70159 15.9518C5.55487 15.9907 5.82731 15.9999 8 15.9999C10.1726 15.9999 10.4451 15.9907 11.2983 15.9518C12.1498 15.913 12.7314 15.7777 13.2402 15.58C13.7663 15.3755 14.2125 15.102 14.6572 14.6572C15.102 14.2125 15.3755 13.7663 15.58 13.2402C15.7777 12.7314 15.913 12.1498 15.9518 11.2983C15.9907 10.4451 15.9999 10.1726 15.9999 8C15.9999 5.82731 15.9907 5.55487 15.9518 4.70159C15.913 3.85009 15.7777 3.26853 15.58 2.75969C15.3755 2.23362 15.102 1.78747 14.6572 1.34275C14.2125 0.898 13.7663 0.624437 13.2402 0.42C12.7314 0.222219 12.1498 0.087 11.2983 0.0481562C10.4451 0.00921875 10.1726 0 8 0ZM8 1.44147C10.1361 1.44147 10.3891 1.44959 11.2327 1.48809C12.0126 1.52369 12.4362 1.654 12.7181 1.76353C13.0915 1.90866 13.358 2.08203 13.638 2.36197C13.9179 2.64191 14.0913 2.90844 14.2364 3.28181C14.346 3.56372 14.4763 3.98731 14.5119 4.76728C14.5503 5.61087 14.5585 5.86391 14.5585 8C14.5585 10.1361 14.5503 10.3891 14.5119 11.2327C14.4763 12.0126 14.346 12.4362 14.2364 12.7181C14.0913 13.0915 13.9179 13.358 13.638 13.638C13.358 13.9179 13.0915 14.0913 12.7181 14.2364C12.4362 14.346 12.0126 14.4763 11.2327 14.5118C10.3892 14.5503 10.1362 14.5585 8 14.5585C5.86372 14.5585 5.61078 14.5503 4.76728 14.5118C3.98731 14.4763 3.56372 14.346 3.28181 14.2364C2.90841 14.0913 2.64191 13.9179 2.36194 13.638C2.082 13.358 1.90862 13.0915 1.76353 12.7181C1.65397 12.4362 1.52366 12.0126 1.48806 11.2327C1.44956 10.3891 1.44144 10.1361 1.44144 8C1.44144 5.86391 1.44956 5.61087 1.48806 4.76728C1.52366 3.98731 1.65397 3.56372 1.76353 3.28181C1.90862 2.90844 2.082 2.64191 2.36194 2.36197C2.64191 2.08203 2.90841 1.90866 3.28181 1.76353C3.56372 1.654 3.98731 1.52369 4.76728 1.48809C5.61087 1.44959 5.86391 1.44147 8 1.44147Z" fill="#1D1D1F"/>
</g>
</g>
<defs>
<clipPath id="clip0_350_2665">
<rect width="16" height="16" fill="white"/>
</clipPath>
</defs>
</svg>
